/* XPM */
static char *_af5bb65be7e4fd9af9c2a77fb9939782YjIQuM7Ylc8IHi8[] = {
/* columns rows colors chars-per-pixel */
"15 15 15 1 ",
"  c #2A2640",
". c #742A81",
"X c #5B276D",
"o c #42195D",
"O c #532864",
"+ c #48285B",
"@ c #3F2752",
"# c #38264D",
"$ c #3E2752",
"% c #342649",
"& c #38274C",
"* c #332649",
"= c #3B274F",
"- c #312249",
"; c #402753",
/* pixels */
"               ",
"...XXoooXXX.X..",
"..X..XoX.X.X...",
"....X.oXX......",
"......X........",
".....XX........",
".....Xo........",
".....XoX.X.....",
"...XXoooX.X....",
"OXXooooooooooXX",
"........XXooX..",
"..........Xo...",
"...........X...",
"....X.....XX...",
"+@@#$%&&*=#-;;;"
};
