/* XPM */
static char *bg1683555711[] = {
/* columns rows colors chars-per-pixel */
"32 32 15 1 ",
"  c #2A2640",
". c #742A81",
"X c #5B276D",
"o c #42195D",
"O c #532864",
"+ c #48285B",
"@ c #3F2752",
"# c #38264D",
"$ c #3E2752",
"% c #342649",
"& c #38274C",
"* c #332649",
"= c #3B274F",
"- c #312249",
"; c #402753",
/* pixels */
"                                ",
"                                ",
"......XXXXXooooooXXXXXX...XX....",
"......XXXXXooooooXXXXXX...XX....",
"....XX.....XXooXX..XX..XXX......",
"....XX.....XXooXX..XX..XXX......",
".........XX..ooXXXX.............",
".........XX..ooXXXX.............",
".........XX..ooXXXX.............",
".............XX.................",
".............XX.................",
"...........XXXX.................",
"...........XXXX.................",
"...........XXoo.................",
"...........XXoo.................",
"...........XXooXX..XX...........",
"...........XXooXX..XX...........",
"......XXXXXooooooXX..XX.........",
"......XXXXXooooooXX..XX.........",
"OOXXXXooooooooooooooooooooooXXXX",
"OOXXXXooooooooooooooooooooooXXXX",
".................XXXXoooooXX....",
".................XXXXoooooXX....",
".....................XXooo......",
".....................XXooo......",
".....................XXooo......",
".......................XXX......",
".......................XXX......",
".........XX..........XXXXX......",
".........XX..........XXXXX......",
"++@@@@###$$%%&&&&**==##---;;;;;;",
"++@@@@###$$%%&&&&**==##---;;;;;;"
};
