/* XPM */
static char *coins1683555711[] = {
/* columns rows colors chars-per-pixel */
"32 32 143 2 ",
"   c #2A2640",
".  c #39274D",
"X  c #36264B",
"o  c #342649",
"O  c #322548",
"+  c #2F2446",
"@  c #2F2346",
"#  c #302447",
"$  c #37274B",
"%  c #38274D",
"&  c #5C296C",
"*  c #5A296B",
"=  c #532864",
"-  c #4B275E",
";  c #44235A",
":  c #3C1E55",
">  c #3A1D53",
",  c #3E1F56",
"<  c #46245B",
"1  c #4C275F",
"2  c #542865",
"3  c #5B296B",
"4  c #542866",
"5  c #512763",
"6  c #59286A",
"7  c #742A81",
"8  c #512B6B",
"9  c #BD771C",
"0  c #481C61",
"q  c #441A5E",
"w  c #43195D",
"e  c #431A5E",
"r  c #451B5F",
"t  c #4B1E63",
"y  c #57246B",
"u  c #5E276F",
"i  c #3C1F5C",
"p  c #602871",
"a  c #672877",
"s  c #712A7F",
"d  c #722A7F",
"f  c #542269",
"g  c #4C1E63",
"h  c #451A5F",
"j  c #471C60",
"k  c #4E2064",
"l  c #57236B",
"z  c #632774",
"x  c #682977",
"c  c #6A2979",
"v  c #6E297C",
"b  c #732A80",
"n  c #712A7E",
"m  c #C7A339",
"M  c #876E20",
"N  c #471B60",
"B  c #491D62",
"V  c #552469",
"C  c #722A80",
"Z  c #491C62",
"A  c #6E2A7C",
"S  c #6F2A7C",
"D  c #6B277B",
"F  c #6D287C",
"G  c #6F297D",
"H  c #70297E",
"J  c #5F296E",
"K  c #602970",
"L  c #541F6A",
"P  c #5A236E",
"I  c #622773",
"U  c #642874",
"Y  c #572867",
"T  c #582869",
"R  c #5B286D",
"E  c #5C266E",
"W  c #4F2065",
"Q  c #5A266D",
"!  c #662975",
"~  c #672976",
"^  c #692979",
"/  c #692878",
"(  c #4F2066",
")  c #5A246D",
"_  c #662876",
"`  c #652875",
"'  c #652775",
"]  c #6D297B",
"[  c #4E2065",
"{  c #42195D",
"}  c #58216D",
"|  c #59246D",
" . c #4E1F65",
".. c #5F2471",
"X. c #71297F",
"o. c #59266C",
"O. c #652974",
"+. c #642973",
"@. c #632972",
"#. c #622971",
"$. c #612971",
"%. c #522765",
"&. c #572869",
"*. c #5E296D",
"=. c #5F296F",
"-. c #60296F",
";. c #4E2662",
":. c #4D2561",
">. c #572769",
",. c #512863",
"<. c #4F2861",
"1. c #4C285E",
"2. c #4A285C",
"3. c #49285B",
"4. c #472759",
"5. c #442758",
"6. c #442757",
"7. c #432756",
"8. c #412755",
"9. c #422755",
"0. c #442756",
"q. c #442857",
"w. c #3C2552",
"e. c #3A2350",
"r. c #412556",
"t. c #49275B",
"y. c #4B285C",
"u. c #48285B",
"i. c #462859",
"p. c #3F2752",
"a. c #3E2752",
"s. c #3B264F",
"d. c #38264D",
"f. c #3A274E",
"g. c #35264A",
"h. c #38274C",
"j. c #34264A",
"k. c #3B274F",
"l. c #39264E",
"z. c #34244B",
"x. c #312249",
"c. c #38244E",
"v. c #402753",
/* pixels */
"                                                                ",
". . . . . . X o o o O + @ @ @ @ # O o o o o o $ . $ o X % . . . ",
"& & & & & * = - - - ; : > > > > , < - - - - 1 2 3 4 1 5 6 & & & ",
"7 7 7 7 8 8 9 9 9 9 9 0 q w e r t y u 9 9 9 9 i i i p a s 7 7 7 ",
"7 7 7 d 8 8 9 9 9 9 9 f g h j k l z x 9 9 9 9 i i i c v b 7 7 7 ",
"7 7 7 n 9 9 m m m m m M M N B V p 9 9 m m m m M M M C 7 7 7 7 7 ",
"7 7 7 C 9 9 m m m m m M M Z B V u 9 9 m m m m M M M b 7 7 7 7 7 ",
"7 7 7 7 i i M M M M M i i i i i i i i M M M M i i i 7 7 7 7 7 7 ",
"7 7 7 7 i i M M M M M i i i i i i i i M M M M i i i 7 7 7 7 7 7 ",
"7 7 7 7 i i M M M M M i i i i i i i i M M M M i i i 7 7 7 7 7 7 ",
"7 7 7 7 7 7 i i i i i M M M M 9 9 9 9 M M i i i i i 7 7 7 7 7 7 ",
"7 7 7 7 7 7 i i i i i M M M M 9 9 9 9 M M i i i i i 7 7 7 7 7 7 ",
"7 7 7 7 7 7 7 7 7 M M 9 9 9 9 m m m m M M M M M M M i i 7 7 7 7 ",
"7 7 7 7 7 7 7 7 7 M M 9 9 9 9 m m m m M M M M M M M i i 7 7 7 7 ",
"7 7 8 8 9 9 9 9 9 M M m m m m M M 9 9 m m m m 9 9 9 M M i i 7 7 ",
"7 7 8 8 9 9 9 9 9 M M m m m m M M 9 9 m m m m 9 9 9 M M i i 7 7 ",
"7 7 M M m m m m m M M M M M M 9 9 9 9 M M m m m m m 7 7 7 7 7 7 ",
"7 7 M M m m m m m M M M M M M 9 9 9 9 M M m m m m m 7 7 7 7 7 7 ",
"A S i i M M M M M 9 9 9 9 9 9 m m m m 9 9 9 9 M M M D F G H H H ",
"J K i i M M M M M 9 9 9 9 9 9 m m m m 9 9 9 9 M M M L P I U U U ",
"Y T R u u E i i i M M M M i i M M M M M M M M i i i h W Q u u u ",
"! ~ x ^ ^ / i i i M M M M i i M M M M M M M M i i i ( ) _ ^ ^ ^ ",
"7 7 7 7 7 7 9 9 9 m m m m M M i i i i i i i i i i i Q ` n 7 7 7 ",
"7 7 7 7 7 7 9 9 9 m m m m M M i i i i i i i i i i i ' ] C 7 7 7 ",
"7 7 7 7 7 7 7 7 7 9 9 9 9 i i 7 7 7 7 M M M M [ { } H 7 7 7 7 7 ",
"7 7 7 7 7 7 7 7 7 9 9 9 9 i i 7 7 7 7 M M M M |  ...X.7 7 7 7 7 ",
"7 7 7 7 7 7 7 7 7 9 9 9 9 i i 7 7 7 7 M M M M ` o.` d 7 7 7 7 7 ",
"7 7 7 7 7 7 7 7 G i i i i 7 7 7 7 M M m m m m M M M d 7 7 7 7 7 ",
"7 7 7 7 7 7 7 7 c i i i i 7 7 7 7 M M m m m m M M M d 7 7 7 7 7 ",
"! O.+.@.@.#.$.K 6 %.&.*.=.-.K K -.i i 9 9 9 9 ;.:.>.$.@.@.@.@.@.",
",.<.1.2.2.3.4.5.5.6.7.8.9.0.q.q.7.i i 9 9 9 9 w.e.r.t.y.y.y.y.y.",
"u.i.9.p.p.a.s.d.s.a.f.g.g.$ h.h.$ j.j.% k.l.d.z.x.c.p.v.v.v.v.v."
};
