/* XPM */
static char *cd93cb5f6ee744b38b1abf749b79e548eMtNsnigoaHwKPEg[] = {
/* columns rows colors chars-per-pixel */
"15 15 6 1 ",
"  c None",
". c #3C1F5C",
"X c #512B6B",
"o c #BD771C",
"O c #876E20",
"+ c #C7A339",
/* pixels */
"               ",
"  Xoo    oo.   ",
"  o++O  o++O   ",
"  .OO....OO.   ",
"   ..OOooO..   ",
"    Ooo++OOO.  ",
" XooO++Oo++oO. ",
" O++OOOooO++   ",
" .OOooo++ooO   ",
"   .OO.OOOO.   ",
"   o++O.....   ",
"    oo.  OO    ",
"    ..  O++O   ",
"        .oo    ",
"               "
};
