/* XPM */
static char *exit1683555711[] = {
/* columns rows colors chars-per-pixel */
"32 32 4 1 ",
"  c #2D2A41",
". c #585580",
"X c #797CC2",
"o c #8695D1",
/* pixels */
"                                ",
"                                ",
"                                ",
"                                ",
"....XXooooo                     ",
"....XXooooo                     ",
"....XXooooo                     ",
"....XXooooo                     ",
"....XXooooo                     ",
"....XXXXXoo  XXXXXXXX           ",
"....XXXXXoo  XXXXXXXX           ",
"....XXXXXoo  ....XXXX           ",
"....XXXXXoo  ....XXXX           ",
"....XXXXXXX  ......XX  ...XXXX  ",
"....XXXXXXX  ......XX  ...XXXX  ",
"....XXXXXoo  ......XX  .....XX  ",
"....XXXXXoo  ......XX  .....XX  ",
"....XXXXXXX  ......XX  .....XX  ",
"....XXXXXXX  ......XX  .....XX  ",
"....XXXXXXX  ........  .......  ",
"....XXXXXXX  ........  .......  ",
"......XXXXX  ......XX  .....XX  ",
"......XXXXX  ......XX  .....XX  ",
".........XX  ........  .......  ",
".........XX  ........  .......  ",
".........XX  ........  .......  ",
"......XXX..  ........  .......  ",
"......XXX..  ........  .......  ",
"...........  ........  .......  ",
"...........  ........  .......  ",
"                                ",
"                                "
};
