/* XPM */
static char *playerwbg1683555925[] = {
/* columns rows colors chars-per-pixel */
"32 32 168 2 ",
"   c #2A2640",
".  c #39274D",
"X  c #36264B",
"o  c #342649",
"O  c #322548",
"+  c #2F2446",
"@  c #2F2346",
"#  c #302447",
"$  c #37274B",
"%  c #38274D",
"&  c #5C296C",
"*  c #5A296B",
"=  c #532864",
"-  c #4B275E",
";  c #44235A",
":  c #3C1E55",
">  c #3A1D53",
",  c #3E1F56",
"<  c #46245B",
"1  c #4C275F",
"2  c #542865",
"3  c #5B296B",
"4  c #542866",
"5  c #512763",
"6  c #59286A",
"7  c #742A81",
"8  c #722A7F",
"9  c #6F297D",
"0  c #672876",
"q  c #5F2770",
"w  c #542269",
"e  c #481C61",
"r  c #441A5E",
"t  c #43195D",
"y  c #431A5E",
"u  c #451B5F",
"i  c #4B1E63",
"p  c #57246B",
"a  c #5E276F",
"s  c #5C276E",
"d  c #5B276D",
"f  c #5D276F",
"g  c #5F2870",
"h  c #682977",
"j  c #702A7E",
"k  c #682978",
"l  c #602871",
"z  c #672877",
"x  c #712A7F",
"c  c #6B297A",
"v  c #652875",
"b  c #6A2979",
"n  c #602671",
"m  c #4C1E63",
"M  c #451A5F",
"N  c #471C60",
"B  c #4E2064",
"V  c #57236B",
"C  c #632774",
"Z  c #5D276E",
"A  c #642874",
"S  c #6E297C",
"D  c #732A80",
"F  c #712A7E",
"G  c #662876",
"H  c #722A80",
"J  c #692978",
"K  c #532268",
"L  c #471B60",
"P  c #491D62",
"I  c #552469",
"U  c #6E297D",
"Y  c #5F2871",
"T  c #6D297B",
"R  c #6D297C",
"E  c #5B236E",
"W  c #04193F",
"Q  c #732A81",
"!  c #0FEFFB",
"~  c #0696DB",
"^  c #03396B",
"/  c #FCFEFE",
"(  c #622873",
")  c #6E2A7C",
"_  c #6F2A7C",
"`  c #6F2A7D",
"'  c #70297E",
"]  c #622773",
"[  c #57256A",
"{  c #612673",
"}  c #6B277B",
"|  c #6D287C",
" . c #5F296E",
".. c #602970",
"X. c #622872",
"o. c #56236B",
"O. c #501F66",
"+. c #541F6A",
"@. c #5A236E",
"#. c #572867",
"$. c #582869",
"%. c #5B286D",
"&. c #5C266E",
"*. c #522167",
"=. c #471B61",
"-. c #C3242F",
";. c #42195D",
":. c #4F2065",
">. c #5A266D",
",. c #662975",
"<. c #672976",
"1. c #692979",
"2. c #692878",
"3. c #642675",
"4. c #5F2372",
"5. c #E7333B",
"6. c #491D61",
"7. c #4F2066",
"8. c #5A246D",
"9. c #4E1F65",
"0. c #4E2065",
"q. c #532069",
"w. c #652775",
"e. c #58216D",
"r. c #59246D",
"t. c #5F2471",
"y. c #71297F",
"u. c #59266C",
"i. c #5E2770",
"p. c #652974",
"a. c #642973",
"s. c #632972",
"d. c #622971",
"f. c #612971",
"g. c #572868",
"h. c #4F2762",
"j. c #4E2662",
"k. c #4D2561",
"l. c #572769",
"z. c #512863",
"x. c #4F2861",
"c. c #4C285E",
"v. c #4A285C",
"b. c #49285B",
"n. c #472759",
"m. c #442758",
"M. c #462759",
"N. c #422756",
"B. c #3F2653",
"V. c #3C2552",
"C. c #3A2350",
"Z. c #412556",
"A. c #49275B",
"S. c #4B285C",
"D. c #48285B",
"F. c #462859",
"G. c #422755",
"H. c #3F2752",
"J. c #3E2752",
"K. c #3B264F",
"L. c #38264D",
"P. c #38274C",
"I. c #3B274F",
"U. c #39264E",
"Y. c #34244B",
"T. c #312249",
"R. c #38244E",
"E. c #402753",
/* pixels */
"                                                                ",
". . . . . . X o o o O + @ @ @ @ # O o o o o o $ . $ o X % . . . ",
"& & & & & * = - - - ; : > > > > , < - - - - 1 2 3 4 1 5 6 & & & ",
"7 7 7 7 8 9 0 q q q w e r t y u i p a s d f g h j k l z x 7 7 7 ",
"7 7 7 8 c v h b b b n w m M N B V C h l Z A b z v z b S D 7 7 7 ",
"7 7 7 F G q b 7 D H J g K L P I l c U v Y b D h f z H 7 7 7 7 7 ",
"7 7 7 H T b 9 7 R z z k E W W W W W 0 h b 9 Q S J S D 7 7 7 7 7 ",
"7 7 7 7 7 7 7 7 h Z G W W ! ! ! ~ ~ W W 7 7 7 7 7 7 7 7 7 7 7 7 ",
"7 7 7 7 7 7 7 7 S h W ! ! ! ! ! ! ~ ^ ^ W 7 7 7 7 7 7 7 7 7 7 7 ",
"7 7 7 7 7 7 7 7 Q W ! ! ! ! ! ! ! W W ^ ^ W 7 7 7 7 7 7 7 7 7 7 ",
"7 7 7 7 7 7 7 7 W ! ! ! ! ! ! ! ! W W ^ ^ ^ W 7 7 7 7 7 7 7 7 7 ",
"7 7 7 7 7 7 7 7 W ! ! ! W W W ! ! ~ ~ ^ ^ W W 7 7 7 7 7 7 7 7 7 ",
"7 7 7 7 7 7 7 W ! ! ! W W / / W ! ~ ~ ~ W W / W 7 7 7 7 7 7 7 7 ",
"7 7 7 7 7 7 7 W ! ! ! W W / / W ! ~ ~ ~ W W / W 7 7 7 7 7 7 7 7 ",
"7 7 7 7 7 7 7 W ! ! ! W W W W W ! ~ ~ ~ W W W W 7 7 7 7 7 7 7 7 ",
"7 7 7 7 7 7 7 W ! ! ! ! W W W ! ~ ~ ~ ~ ^ W W W 7 7 7 7 7 7 7 7 ",
"7 7 7 7 7 7 F W ! ! ! ! ! ! ! ! ~ ~ ~ ~ ^ ^ ^ W 7 7 7 7 7 7 7 7 ",
"7 7 7 7 7 D b ( W ! ! ! ! ! ! ~ ~ ~ ~ ^ ^ ^ W c 7 7 7 7 7 7 7 7 ",
") _ ` ' ' S ] [ W ! ! ! ! ~ ~ ~ ~ W W ^ ^ ^ W { } } } | 9 ' ' ' ",
" ...X.A A ] o.i i W ~ ~ ~ ~ ~ ~ ~ ~ ~ ^ ^ W i O.+.+.+.@.] A A A ",
"#.$.%.a a &.*.=.=.W -.-.~ ~ ~ ~ ~ ~ ^ ^ ^ W ;.;.;.y M :.>.a a a ",
",.<.h 1.1.2.3.4.4.W 5.5.-.-.-.^ ^ ^ ^ ^ -.W ;.;.;.6.7.8.G 1.1.1.",
"7 7 7 7 7 7 7 7 W ^ W 5.5.5.5.-.-.-.-.-.5.W y t ;.9.>.v F 7 7 7 ",
"7 7 7 7 7 7 7 7 W ~ ^ W W 5.5.5.5.5.5.5.5.W 0.e ;.q.w.T H 7 7 7 ",
"7 7 7 7 7 7 7 W ~ ~ ~ ~ ^ W 5.5.5.5.5.5.W ^ W 0.;.e.' 7 7 7 7 7 ",
"7 7 7 7 7 7 7 W ~ ~ ~ ~ ^ ^ W W 5.5.5.5.^ ^ W r.9.t.y.7 7 7 7 7 ",
"7 7 7 7 7 7 7 W ~ ~ ~ ^ ~ ~ ^ ^ W W 5.W ^ ^ W v u.v 8 7 7 7 7 7 ",
"7 7 7 7 7 7 7 7 W ^ ^ ~ ~ ~ ~ ~ ^ ^ W ^ W W b ( d G 8 7 7 7 7 7 ",
"7 7 7 7 7 7 7 7 b W ~ ~ ~ ~ ~ ^ ^ ^ ^ ^ W h i.Z d G 8 7 7 7 7 7 ",
",.p.a.s.s.d.f...6 W ~ ~ ~ ~ W W ^ ^ ^ ^ W g.h.j.k.l.f.s.s.s.s.s.",
"z.x.c.v.v.b.n.m.m.W ~ ~ ~ ~ W W ^ ^ ^ W M.N.B.V.C.Z.A.S.S.S.S.S.",
"D.F.G.H.H.J.K.L.K.W ~ ~ ~ W P.W ^ ^ ^ W I.U.L.Y.T.R.H.E.E.E.E.E."
};
