/* XPM */
static char *ae82dae751d54c6eaadbbdd312ec55fcvRrq55xmlGdkGOQk[] = {
/* columns rows colors chars-per-pixel */
"15 15 71 1 ",
"  c None",
". c #1A1F1B",
"X c #1B1F1B",
"o c #1D1F1C",
"O c #1E1F1E",
"+ c #1F201C",
"@ c #24231D",
"# c #2B221F",
"$ c #261F23",
"% c #331E2B",
"& c #3F1E33",
"* c #3B2523",
"= c #3C242B",
"- c #4C1D3B",
"; c #4C2727",
": c #412F24",
"> c #4F2D27",
", c #44212F",
"< c #48242B",
"1 c #5D2A2B",
"2 c #543829",
"3 c #402C37",
"4 c #542433",
"5 c #4E3530",
"6 c #70322F",
"7 c #76293B",
"8 c #7E3032",
"9 c #733830",
"0 c #6E4333",
"q c #784031",
"w c #784332",
"e c #651C4C",
"r c #751F50",
"t c #533042",
"y c #7A224B",
"u c #65344D",
"i c #663853",
"p c #8F5037",
"a c #AA4B3D",
"s c #972557",
"d c #92215C",
"f c #8C3251",
"g c #A32E4B",
"h c #AD3C48",
"j c #A9394C",
"k c #8A1B64",
"l c #B84840",
"z c #BC5547",
"x c #AB6445",
"c c #BA675B",
"v c #8B4069",
"b c #C15943",
"n c #C35E43",
"m c #C66444",
"M c #C96945",
"N c #CD6A4D",
"B c #CF724A",
"V c #D57A4F",
"C c #CA6250",
"Z c #D97B58",
"A c #DB8355",
"S c #E18C5A",
"D c #E58D62",
"F c #ED9D64",
"G c #F3A66A",
"H c #F9AE6F",
"J c #FFB774",
"K c #D76AA6",
"L c #FD7DC1",
"P c #EB84BB",
"I c #FE9DD0",
/* pixels */
"               ",
"               ",
" X# o@2222 +   ",
"X9;X6nVASBa*oX ",
">h,8nSHJJGMa*1X",
"XXXMMFJJJJMM28p",
"  XgmbZDDNzz<-1",
"  Xkhssssssj&XX",
"  Xky&&&&&&d&. ",
"  Xe&$iLK3&-4x=",
"  XXr,vIPts-1cq",
" f*X#w5ut0;++%+",
"+AC+ +pAF2+    ",
"+7++           ",
" +             "
};
