/* XPM */
static char *_d571daf1d9641fecf564c8763d366edJASakjrATDyhUvT9[] = {
/* columns rows colors chars-per-pixel */
"15 15 9 1 ",
"  c None",
". c #1A1F1B",
"X c #54394F",
"o c #B0383E",
"O c #8A1B64",
"+ c #C96945",
"@ c #FFB774",
"# c #FC5DB1",
"$ c #FFBDE0",
/* pixels */
"    .......    ",
"  .+++++++oo.  ",
" .++@@@+++++o. ",
".++@@@@@+++++o.",
".++@@@@@+++++o.",
".Oo+@@@++++++o.",
".OOOOOoo+++ooO.",
" .....OOooooOO.",
" .......OOOOO..",
" .##X...O......",
"..$$#..O.....O.",
"O.##X+@...@o...",
"O....o+o.o+o.O.",
".   ..+o.oo....",
".    .o. o..   "
};
