/* XPM */
static char *_e9b9b102972427d9282f4b589aacd2fqSy1dNfHlbjudDIa[] = {
/* columns rows colors chars-per-pixel */
"15 15 9 1 ",
"  c None",
". c #1A1F1B",
"X c #54394F",
"o c #B0383E",
"O c #8A1B64",
"+ c #C96945",
"@ c #FFB774",
"# c #FC5DB1",
"$ c #FFBDE0",
/* pixels */
"    .......    ",
"  .oo+++++++.  ",
" .o+++++@@@++. ",
".o+++++@@@@@++.",
".o+++++@@@@@++.",
".o++++++@@@+oO.",
".Ooo+++ooOOOO..",
".OOooooOO..... ",
"..OOOOO....... ",
"......O...X##. ",
".......o..#$$. ",
".+@o...o...o@+ ",
".o+o....oo.o+o ",
" o+.........+o ",
" .o..     ..o. "
};
