/* XPM */
static char *b6e9c79774814fbe8275642673cd4f69BDXkdsXOz76qBt3a[] = {
/* columns rows colors chars-per-pixel */
"15 15 50 1 ",
"  c None",
". c #1A1F1B",
"X c #1B1F1B",
"o c #1C201B",
"O c #1C201C",
"+ c #26231E",
"@ c #2B221F",
"# c #261F23",
"$ c #331E2B",
"% c #3F1E33",
"& c #282022",
"* c #312026",
"= c #3B2523",
"- c #3D2B23",
"; c #4C1D3B",
": c #452625",
"> c #4C2727",
", c #432A25",
"< c #412F24",
"1 c #44212F",
"2 c #48242B",
"3 c #4C3427",
"4 c #543829",
"5 c #462630",
"6 c #5C203F",
"7 c #61382C",
"8 c #652637",
"9 c #7E3032",
"0 c #6D2343",
"q c #7E2647",
"w c #8F3236",
"e c #89313F",
"r c #9F353A",
"t c #943D38",
"y c #8F5037",
"u c #AA4B3D",
"i c #972557",
"p c #9B2853",
"a c #92215C",
"s c #B64340",
"d c #B84840",
"f c #BA4E41",
"g c #BE5342",
"h c #C35E43",
"j c #C66444",
"k c #C96945",
"l c #DB8355",
"z c #E18C5A",
"x c #ED9D64",
"c c #FFB774",
/* pixels */
"               ",
"               ",
" oO  74447 X   ",
":e5:ujxxxjt=X  ",
"1a%tjzccczht<3 ",
"...kkzcccxkk;p2",
"  .gkkllkkjh+%#",
"  .dkkkkkkku.  ",
"  .iw9yyy9ri@- ",
"  .61;090;06qs,",
" ..##$1>1$$#6i*",
"+f8..;090;. ...",
"&i6........    ",
".%.            ",
" .             "
};
