/* XPM */
static char *walls1683555711[] = {
/* columns rows colors chars-per-pixel */
"32 32 5 1 ",
"  c #797DC6",
". c #2A2640",
"X c #49436D",
"o c #595483",
"O c #8096D4",
/* pixels */
"             ..                 ",
"             ..                 ",
"             XX                 ",
"             XX                 ",
"             XXoo               ",
"             XXoo               ",
"             XXoo               ",
"             XXoo               ",
"             XXoo               ",
"         OOOOXXooOOOO           ",
"         OOOOXXooOOOO           ",
"OOOOOOOOOoooo..ooooooOOoooOOOOoo",
"OOOOOOOOOoooo..ooooooOOoooOOOOoo",
"ooooooooooooo..ooooooooooooooooo",
"ooooooooooooo..ooooooooooooooooo",
"XXXXXXXXXXX......XXXXXXXXXXXXX..",
"XXXXXXXXXXX......XXXXXXXXXXXXX..",
"oooooooooooooooooooooooooooooo..",
"oooooooooooooooooooooooooooooo..",
"                          oooo..",
"                          oooo..",
"                            oo..",
"                            oo..",
"                              XX",
"                              XX",
"                              XX",
"                              XX",
"                              XX",
"  OOOOOOOOOOO        OOOOO  OOXX",
"  OOOOOOOOOOO        OOOOO  OOXX",
"OOoooooooooooOOOOOOoooooooOOXXXX",
"OOoooooooooooOOOOOOoooooooOOXXXX"
};
