/* XPM */
static char *_c16717d862f422d8d52c2fd6f4a8e4ejUlgC3R6Q6XnY6jH[] = {
/* columns rows colors chars-per-pixel */
"15 15 5 1 ",
"  c #797DC6",
". c #2A2640",
"X c #49436D",
"o c #595483",
"O c #8096D4",
/* pixels */
"      .        ",
"      X        ",
"      Xo       ",
"      Xo       ",
"    OOXoOO     ",
"OOOOoo.oooOoOOo",
"oooooo.oooooooo",
"XXXXX...XXXXXX.",
"oooooooooooooo.",
"            oo.",
"             o.",
"              X",
"              X",
" OOOOO    OO OX",
"OoooooOOOoooOXX"
};
